<svg width="340" height="100" viewBox="0 0 340 100" fill="none" xmlns="http://www.w3.org/2000/svg">
<path d="M80.985 49.1981C83.9685 49.2905 86.4943 48.712 89.1475 47.3241C89.3195 47.2341 89.4943 47.1222 89.7462 46.9411C89.7602 46.9311 89.7809 46.916 89.8508 46.8651C89.9323 46.8057 89.9323 46.8057 90.0254 46.7378C90.0262 46.7372 90.0262 46.7372 90.0269 46.7367C90.1531 46.6447 90.2375 46.5835 90.2834 46.5508C93.2541 44.4353 95.7238 43.9992 100.098 45.6372C100.744 45.8795 101.451 46.0872 102.215 46.2608C104.106 41.7024 107.115 36.7055 110.579 32.0472C113.348 28.3243 116.13 25.2476 116.925 24.9303C118.105 24.2652 119.384 23.8942 120.408 23.871C121.426 23.8479 122.064 24.1916 121.86 24.8027C121.695 25.2994 121.344 25.4341 120.354 25.5384C118.903 25.6914 118.362 25.7862 117.372 26.1581C114.746 27.1445 107.444 38.1409 103.709 46.5459C110.867 47.6714 122.043 46.2392 132.996 43.2463C159.955 35.8792 179.392 34.7961 194.49 40.0314C195.324 40.3209 195.67 40.5812 195.483 41.1175C195.395 41.373 195.208 41.4874 194.959 41.4671C194.801 41.4542 194.685 41.4134 194.351 41.2732C194.302 41.253 194.271 41.2398 194.238 41.2267C194.179 41.2028 194.129 41.1837 194.082 41.1673C179.395 36.0744 159.855 37.1465 133.439 44.3652C122.076 47.4704 110.414 48.9561 103.195 47.7438C102.468 49.5009 101.983 50.991 101.775 52.1377C100.606 58.5773 100.108 62.2348 99.9864 66.3779C99.8316 71.6534 100.452 76.6742 102.041 81.9641C102.064 82.0413 102.077 82.0851 102.09 82.13C102.111 82.1998 102.129 82.2629 102.147 82.3255C102.191 82.4866 102.227 82.634 102.255 82.7744C102.385 83.4223 102.332 83.8529 101.955 83.9737C101.528 84.1103 101.263 83.7072 101.046 82.9558C100.991 82.7649 100.968 82.6711 100.884 82.3037C97.8932 69.2248 97.8246 60.9887 100.841 50.1806C101.088 49.2978 101.389 48.3867 101.743 47.45C101.044 47.2821 100.396 47.0843 99.801 46.8561C95.6345 45.2581 94.0108 45.3506 92.1324 46.6761C92.0219 46.754 91.6317 47.0359 91.5619 47.0855C91.5211 47.1146 91.4389 47.1743 91.3059 47.2712C91.3054 47.2716 91.3054 47.2716 91.3049 47.272C91.1287 47.4005 91.0606 47.4501 91.0324 47.4704C90.6948 47.713 90.4422 47.8736 90.1693 48.0163C86.591 49.8882 83.2493 50.735 79.4889 50.6168C79.2375 50.8537 78.9824 51.0933 78.7234 51.3359C75.1951 54.6405 75.1368 55.6907 78.3632 57.0783C81.3325 58.3553 88.6093 57.4477 97.1211 54.2911C97.809 54.036 98.3382 54.0901 98.5366 54.6287C98.7049 55.0858 98.5888 55.2707 98.1475 55.3654C98.103 55.375 97.9116 55.4127 97.8626 55.4229C95.1081 55.997 92.6812 56.5423 90.3732 57.096C89.4778 57.3109 88.6281 57.5202 87.7016 57.7528C87.2043 57.8776 85.7382 58.249 85.5937 58.2854C82.6929 59.0163 81.6791 59.1936 80.5031 59.1101C79.8406 59.0631 79.1669 58.9185 78.2547 58.6368C73.524 57.1761 73.3014 54.398 77.3794 50.4538C76.5571 50.3541 75.7108 50.2111 74.8361 50.0239C74.144 49.8758 73.6507 49.4555 73.7711 48.8942C73.8902 48.3394 74.6508 48.2706 75.5312 48.4591C76.7813 48.7266 77.9106 48.9199 78.9585 49.0432C79.0202 48.9918 79.0825 48.9401 79.1455 48.8882C89.9295 40.0089 95.5663 32.0898 96.7189 25.921C96.9911 24.4647 95.0056 22.1108 92.3926 20.7188C88.3085 18.5431 82.825 17.2625 75.7828 17.2625C67.5218 17.2625 57.5257 19.8457 48.7851 24.5094C42.0711 28.0917 35.1918 33.6747 34.3777 35.7988C34.0346 36.694 34.0582 37.1632 34.4753 37.6403C34.7388 37.9417 35.1643 38.2563 35.9263 38.7271C36.2514 38.9279 38.0936 40.0202 38.7138 40.3985C39.8303 41.0796 40.8167 42.1768 40.6233 42.7375C40.5179 43.043 40.2682 43.1636 39.9456 43.1205C39.7217 43.0906 39.4692 42.9867 39.1901 42.8291C39.2545 42.8654 36.8565 41.5247 36.2909 41.1958C35.3505 40.6489 34.6887 40.2203 34.1622 39.8038C32.5502 38.5291 32.1527 37.2634 32.8877 35.3459C33.8634 32.8001 40.4547 27.7845 48.3117 23.5923C57.5591 18.6582 67.3624 16 75.7828 16C83.3245 16 88.9135 17.2257 93.1701 19.4932C96.6615 21.3532 98.6368 23.9643 97.9693 26.3089C95.989 33.2641 92.3424 38.357 80.985 49.1981ZM71.6232 64.8781C71.6632 64.989 71.7012 65.0646 71.8678 65.377C71.8923 65.4228 71.9021 65.4414 71.9167 65.4692C72.0586 65.7396 72.1354 65.9179 72.1667 66.0823C72.2143 66.3318 72.1357 66.5288 71.9081 66.6139C71.3422 66.8252 70.7157 66.5295 70.509 65.9551C66.2955 54.2494 64.8768 45.5306 65.8744 40.1954C65.9867 39.595 66.5571 39.1998 67.1491 39.3147C67.7403 39.4294 68.1272 40.009 68.0151 40.6087C66.9389 46.3644 67.8086 54.2805 71.6232 64.8781Z" fill="white" stroke="white" stroke-linejoin="round"/>
</svg>
